Coordinates
version=1
nRows=31
nColumns=38
inDegrees=no

Units are S.I. units (second, meters, Newtons, ...)
If the header above contains a line with 'inDegrees', this indicates whether rotational values are in degrees (yes) or radians (no).

endheader
time	pelvis_tilt	pelvis_list	pelvis_rotation	pelvis_tx	pelvis_ty	pelvis_tz	hip_flexion_r	hip_adduction_r	hip_rotation_r	knee_angle_r	ankle_angle_r	subtalar_angle_r	mtp_angle_r	hip_flexion_l	hip_adduction_l	hip_rotation_l	knee_angle_l	ankle_angle_l	subtalar_angle_l	mtp_angle_l	lumbar_extension	lumbar_bending	lumbar_rotation	arm_flex_r	arm_add_r	arm_rot_r	elbow_flex_r	pro_sup_r	wrist_flex_r	wrist_dev_r	arm_flex_l	arm_add_l	arm_rot_l	elbow_flex_l	pro_sup_l	wrist_flex_l	wrist_dev_l
3.77	-0.0658673	0.0743312	-0.00840265	0.867704	0.988077	-0.345596	-0.336755	-0.095921	-0.335021	-0.404325	-0.0522369	0.1	-1.54716e-05	0.738181	0.0920447	-0.119821	-1.01136	0.252034	0.1	-4.62513e-05	-0.115709	-0.108262	0.146282	-0.254189	-0.508223	-0.304656	1.93574	1.36157	0.0267923	-0.0465805	-0.777165	-0.326294	-0.180536	1.58059	1.74297	0.1	-0.0268818
3.78	-0.0741461	0.0772637	-0.0175806	0.869101	0.990776	-0.345512	-0.352414	-0.107295	-0.325124	-0.42352	-0.150845	0.1	-1.54716e-05	0.720116	0.0970405	-0.120777	-0.844859	0.282871	0.1	-4.62513e-05	-0.100633	-0.112515	0.159929	-0.255519	-0.50786	-0.303724	1.95202	1.37622	0.0267923	-0.0465805	-0.802263	-0.31714	-0.199228	1.59786	1.72983	0.1	-0.0268818
3.79	-0.0787659	0.0750143	-0.0269634	0.869956	0.992873	-0.345058	-0.3606	-0.111837	-0.303542	-0.462402	-0.232634	0.1	-1.54716e-05	0.692837	0.0970511	-0.116411	-0.680369	0.312874	0.1	-4.62513e-05	-0.0919038	-0.111446	0.171998	-0.256126	-0.506803	-0.3009	1.96458	1.39149	0.0267923	-0.0465805	-0.817297	-0.306597	-0.216121	1.60933	1.71989	0.1	-0.0268818
3.8	-0.0790918	0.0687897	-0.035587	0.87031	0.994364	-0.344345	-0.362632	-0.110312	-0.272192	-0.520426	-0.294377	0.1	-1.54716e-05	0.65853	0.093484	-0.108003	-0.525868	0.338767	0.1	-4.62513e-05	-0.0902935	-0.106463	0.181302	-0.256337	-0.504867	-0.29656	1.97329	1.40644	0.0267923	-0.0465805	-0.82233	-0.295829	-0.230685	1.61572	1.71284	0.1	-0.0268818
3.81	-0.0748653	0.0602704	-0.0425562	0.870196	0.995247	-0.34353	-0.359669	-0.104297	-0.234594	-0.596089	-0.336126	0.1	-1.54716e-05	0.62001	0.0880713	-0.0974582	-0.389803	0.35669	0.1	-4.62513e-05	-0.0960295	-0.0994487	0.186749	-0.256603	-0.50185	-0.291027	1.97802	1.42005	0.0267923	-0.0465805	-0.817858	-0.286114	-0.242369	1.61802	1.70832	0.1	-0.0268818
3.82	-0.0663106	0.0513431	-0.0471026	0.869605	0.995501	-0.342777	-0.352503	-0.0959543	-0.195296	-0.687011	-0.360832	0.1	-1.54716e-05	0.58053	0.0826561	-0.0869091	-0.280211	0.363208	0.1	-4.62513e-05	-0.108705	-0.0924376	0.187434	-0.257413	-0.497567	-0.284559	1.97865	1.43138	0.0267923	-0.0465805	-0.804681	-0.278692	-0.250683	1.61724	1.70595	0.1	-0.0268818
3.83	-0.0542065	0.0437952	-0.0486335	0.868472	0.995066	-0.342215	-0.341431	-0.0876163	-0.158891	-0.790081	-0.373141	0.1	-1.54716e-05	0.54351	0.0788921	-0.0784526	-0.203858	0.356582	0.1	-4.62513e-05	-0.127275	-0.0872548	0.182708	-0.259219	-0.491884	-0.277352	1.97498	1.43975	0.0267923	-0.0465805	-0.783746	-0.274601	-0.255262	1.61424	1.70535	0.1	-0.0268818
3.84	-0.0397806	0.0390072	-0.0467621	0.866747	0.993869	-0.341921	-0.326174	-0.0813789	-0.129173	-0.90172	-0.377787	0.1	-1.54716e-05	0.512159	0.0780105	-0.0737054	-0.165357	0.337657	0.1	-4.62513e-05	-0.150118	-0.0852225	0.172227	-0.26238	-0.48475	-0.269546	1.96674	1.44488	0.0267923	-0.0465805	-0.755998	-0.274552	-0.255908	1.60956	1.70612	0.1	-0.0268818
3.85	-0.0245909	0.0377831	-0.0413518	0.864429	0.991816	-0.341912	-0.305936	-0.0787581	-0.108478	-1.0182	-0.378236	0.1	-1.54716e-05	0.488902	0.0806901	-0.0733678	-0.166222	0.309991	0.1	-4.62513e-05	-0.175238	-0.0869875	0.155977	-0.267122	-0.476211	-0.261226	1.95367	1.44694	0.0267923	-0.0465805	-0.722262	-0.278844	-0.252603	1.60335	1.7079	0.1	-0.0268818
3.86	-0.0102939	0.0403004	-0.0325628	0.861571	0.988792	-0.342157	-0.279558	-0.0804949	-0.0973814	-1.13593	-0.376086	0.1	-1.54716e-05	0.474794	0.0870439	-0.0769136	-0.204162	0.279281	0.1	-4.62513e-05	-0.200541	-0.0925181	0.134299	-0.273519	-0.466416	-0.252417	1.9355	1.44651	0.0267923	-0.0465805	-0.683179	-0.287348	-0.245493	1.59539	1.71039	0.1	-0.0268818
3.87	0.00161868	0.046187	-0.0208843	0.858221	0.984829	-0.342618	-0.24576	-0.086568	-0.0948392	-1.25165	-0.371246	0.1	-1.54716e-05	0.469283	0.0966873	-0.0827263	-0.273229	0.252463	0.1	-4.62513e-05	-0.224121	-0.101235	0.107894	-0.281505	-0.455587	-0.243072	1.9121	1.44448	0.0267923	-0.0465805	-0.639213	-0.299555	-0.234868	1.58525	1.71347	0.1	-0.0268818
3.88	0.0100555	0.0546705	-0.0071379	0.854484	0.980067	-0.343213	-0.203413	-0.0963414	-0.0986249	-1.36255	-0.362632	0.1	-1.54716e-05	0.470394	0.108837	-0.0887236	-0.364854	0.236591	0.1	-4.62513e-05	-0.244504	-0.112215	0.0777897	-0.290918	-0.444009	-0.233068	1.88358	1.44183	0.0267923	-0.0465805	-0.590718	-0.31466	-0.22114	1.57243	1.71716	0.1	-0.0268818
3.89	0.014516	0.0647569	0.00756427	0.850502	0.974858	-0.34381	-0.151823	-0.108761	-0.105887	-1.46622	-0.348992	0.1	-1.54716e-05	0.475083	0.122399	-0.0932468	-0.469145	0.237492	0.1	-4.62513e-05	-0.260806	-0.124401	0.0452793	-0.301568	-0.432004	-0.222223	1.85039	1.43944	0.0267923	-0.0465805	-0.538063	-0.331674	-0.204843	1.55669	1.72165	0.1	-0.0268818
3.9	0.0151235	0.0753731	0.0219114	0.846381	0.969624	-0.344245	-0.0909754	-0.122563	-0.11375	-1.5606	-0.329424	0.1	-1.54716e-05	0.479538	0.136137	-0.0952573	-0.575911	0.258175	0.1	-4.62513e-05	-0.272818	-0.136766	0.0118162	-0.313327	-0.419924	-0.210346	1.81344	1.43785	0.0267923	-0.0465805	-0.481778	-0.349538	-0.186651	1.53826	1.72716	0.1	-0.0268818
3.91	0.0125865	0.0855163	0.0345535	0.842175	0.964679	-0.344404	-0.0216802	-0.13641	-0.119825	-1.64387	-0.303583	0.1	-1.54716e-05	0.479576	0.148798	-0.0943895	-0.675584	0.297946	0.1	-4.62513e-05	-0.28094	-0.148378	-0.0211208	-0.326211	-0.408132	-0.197347	1.77415	1.43706	0.0267923	-0.0465805	-0.422691	-0.367217	-0.1674	1.51809	1.73382	0.1	-0.0268818
3.92	0.00802346	0.0942818	0.0442994	0.837923	0.960222	-0.344287	0.054444	-0.148966	-0.122552	-1.71438	-0.271701	0.1	-1.54716e-05	0.471189	0.159205	-0.0908643	-0.760105	0.352647	0.1	-4.62513e-05	-0.285986	-0.158398	-0.0521792	-0.340443	-0.396968	-0.18338	1.7344	1.43657	0.0267923	-0.0465805	-0.362001	-0.383762	-0.148084	1.49782	1.7415	0.1	-0.0268818
3.93	0.00267079	0.10088	0.0503149	0.833711	0.956463	-0.343959	0.13515	-0.158944	-0.121394	-1.77063	-0.234502	0.1	-1.54716e-05	0.45119	0.166302	-0.0853949	-0.823685	0.415931	0.1	-4.62513e-05	-0.288881	-0.166018	-0.0802762	-0.356478	-0.386705	-0.168955	1.6964	1.43554	0.0267923	-0.0465805	-0.301278	-0.398342	-0.129805	1.4797	1.74981	0.1	-0.0268818
3.94	-0.00241485	0.104595	0.0522688	0.829696	0.953651	-0.343432	0.217864	-0.165201	-0.116838	-1.81135	-0.193106	0.1	-1.54716e-05	0.417734	0.169227	-0.0790335	-0.863172	0.480746	0.1	-4.62513e-05	-0.290336	-0.170453	-0.104713	-0.374954	-0.37751	-0.154967	1.6624	1.4331	0.0267923	-0.0465805	-0.242346	-0.410258	-0.113667	1.46617	1.75813	0.1	-0.0268818
3.95	-0.00659082	0.104813	0.0503672	0.826075	0.951989	-0.342709	0.299996	-0.166875	-0.110225	-1.83547	-0.148915	0.1	-1.54716e-05	0.370555	0.167352	-0.0731282	-0.877969	0.540507	0.1	-4.62513e-05	-0.29065	-0.170972	-0.12522	-0.396571	-0.369411	-0.14259	1.63444	1.42874	0.0267923	-0.0465805	-0.187099	-0.41898	-0.10061	1.45953	1.76571	0.1	-0.0268818
3.96	-0.00970974	0.101129	0.0452558	0.823045	0.951545	-0.341872	0.37918	-0.163475	-0.103389	-1.84224	-0.103519	0.1	-1.54716e-05	0.310844	0.160316	-0.0692554	-0.869561	0.58957	0.1	-4.62513e-05	-0.289696	-0.16699	-0.141923	-0.421922	-0.362293	-0.133051	1.61398	1.42252	0.0267923	-0.0465805	-0.137269	-0.424211	-0.0912338	1.46151	1.77181	0.1	-0.0268818
3.97	-0.0120366	0.0933918	0.0378298	0.820773	0.952263	-0.341019	0.453397	-0.154921	-0.0982375	-1.83116	-0.058507	0.1	-1.54716e-05	0.240868	0.148066	-0.0690992	-0.840867	0.62326	0.1	-4.62513e-05	-0.287069	-0.158188	-0.155238	-0.451309	-0.355922	-0.127379	1.60177	1.41508	0.0267923	-0.0465805	-0.0942104	-0.425946	-0.0856613	1.47309	1.77577	0.1	-0.0268818
3.98	-0.0140643	0.0817262	0.0290237	0.81937	0.954018	-0.340171	0.521026	-0.141505	-0.0963619	-1.80202	-0.0152228	0.1	-1.54716e-05	0.163526	0.130875	-0.0742613	-0.795666	0.637808	0.1	-4.62513e-05	-0.282314	-0.144611	-0.16574	-0.484604	-0.349979	-0.126191	1.59772	1.40739	0.0267923	-0.0465805	-0.058754	-0.424509	-0.0834904	1.49436	1.77714	0.1	-0.0268818
3.99	-0.0163322	0.0665262	0.0196409	0.818869	0.956649	-0.339279	0.580835	-0.123796	-0.0987811	-1.75481	0.025447	0.1	-1.54716e-05	0.0819837	0.109344	-0.0860113	-0.738223	0.630457	0.1	-4.62513e-05	-0.275112	-0.12671	-0.174041	-0.521187	-0.344121	-0.129586	1.60096	1.40042	0.0267923	-0.0465805	-0.0311488	-0.420529	-0.0838521	1.52467	1.77577	0.1	-0.0268818
4	-0.019307	0.0485043	0.0102667	0.819221	0.959958	-0.338299	0.631958	-0.102557	-0.105846	-1.68968	0.0631482	0.1	-1.54716e-05	-0.00057214	0.0844092	-0.104895	-0.673103	0.599657	0.1	-4.62513e-05	-0.265402	-0.105306	-0.180709	-0.559952	-0.338016	-0.137166	1.61004	1.39485	0.0267923	-0.0465805	-0.0110916	-0.414868	-0.0855507	1.56269	1.77188	0.1	-0.0268818
4.01	-0.0233175	0.0286448	0.00127066	0.820294	0.96372	-0.337199	0.673858	-0.0787139	-0.117305	-1.60698	0.0980201	0.1	-1.54716e-05	-0.0810562	0.0573627	-0.130383	-0.60511	0.545321	0.1	-4.62513e-05	-0.253409	-0.0815586	-0.186243	-0.599406	-0.331386	-0.14815	1.62312	1.39096	0.0267923	-0.0465805	0.00218511	-0.408512	-0.0872392	1.60662	1.76608	0.1	-0.0268818
4.02	-0.0285207	0.00816014	-0.00712317	0.821888	0.967701	-0.335949	0.706292	-0.0533688	-0.132511	-1.5074	0.13057	0.1	-1.54716e-05	-0.156565	0.0297752	-0.160754	-0.539266	0.469075	0.1	-4.62513e-05	-0.239621	-0.0568803	-0.191072	-0.637817	-0.324034	-0.161532	1.63826	1.38867	0.0267923	-0.0465805	0.00979218	-0.402448	-0.0875915	1.65435	1.75932	0.1	-0.0268818
4.03	-0.0348863	-0.0115897	-0.01474	0.823752	0.97168	-0.334548	0.729274	-0.0278066	-0.150662	-1.39213	0.16143	0.1	-1.54716e-05	-0.224462	0.0033811	-0.193137	-0.480732	0.374431	0.1	-4.62513e-05	-0.224735	-0.0328134	-0.195566	-0.673401	-0.31586	-0.176239	1.65364	1.38755	0.0267923	-0.0465805	0.0130482	-0.397532	-0.0854493	1.70361	1.75278	0.1	-0.0268818
4.04	-0.0421816	-0.0292221	-0.021375	0.82563	0.975447	-0.333067	0.743058	-0.00347059	-0.17104	-1.26325	0.19114	0.1	-1.54716e-05	-0.282513	-0.0200858	-0.223798	-0.434596	0.26676	0.1	-4.62513e-05	-0.209611	-0.0108717	-0.200025	-0.704507	-0.30687	-0.191263	1.66782	1.38702	0.0267923	-0.0465805	0.0133377	-0.394377	-0.0799383	1.75208	1.74768	0.1	-0.0268818
4.05	-0.0499581	-0.0434897	-0.0267673	0.827298	0.97881	-0.33164	0.748136	0.0181519	-0.193115	-1.12396	0.219914	0.1	-1.54716e-05	-0.329046	-0.0390664	-0.248608	-0.405533	0.153008	0.1	-4.62513e-05	-0.195226	0.00763141	-0.204648	-0.729765	-0.297173	-0.205755	1.67975	1.38646	0.0267923	-0.0465805	0.011971	-0.393281	-0.0705519	1.79757	1.74497	0.1	-0.0268818
4.06	-0.0575561	-0.0534468	-0.0306377	0.828594	0.981621	-0.330441	0.745259	0.0357154	-0.216538	-0.978843	0.247476	0.1	-1.54716e-05	-0.363105	-0.0523934	-0.263824	-0.397419	0.0410464	0.1	-4.62513e-05	-0.182646	0.0217541	-0.209475	-0.748192	-0.286975	-0.219087	1.68891	1.38532	0.0267923	-0.0465805	0.0100556	-0.394203	-0.0571964	1.83808	1.74515	0.1	-0.0268818
4.07	-0.0641399	-0.0586283	-0.0327677	0.829405	0.983799	-0.329626	0.735423	0.048207	-0.241057	-0.833866	0.273014	0.1	-1.54716e-05	-0.384559	-0.0594658	-0.266825	-0.412938	-0.0613849	0.1	-4.62513e-05	-0.17301	0.0310536	-0.214326	-0.75925	-0.276567	-0.230886	1.69521	1.38324	0.0267923	-0.0465805	0.00839398	-0.396799	-0.0401909	1.87195	1.748	0.1	-0.0268818
